<svg width="20" height="20" viewBox="0 0 20 20" fill="none" xmlns="http://www.w3.org/2000/svg">
<path d="M19.1463 0.674039L19.1222 0.652083C18.6619 0.231597 18.0652 0 17.442 0C16.7433 0 16.0726 0.295745 15.6016 0.811335L6.69593 10.5612C6.61476 10.6501 6.55319 10.7549 6.51512 10.8691L5.46795 14.0083C5.34688 14.3713 5.40764 14.7727 5.63047 15.082C5.85507 15.3937 6.21691 15.5799 6.59847 15.5799H6.59853C6.76357 15.5799 6.92489 15.5459 7.07789 15.479L10.1099 14.1526C10.2201 14.1044 10.319 14.0336 10.4001 13.9447L19.3058 4.19489C20.2326 3.18039 20.1611 1.60106 19.1463 0.674039ZM7.4743 13.4284L8.08878 11.5863L8.1406 11.5296L9.30524 12.5933L9.25341 12.6501L7.4743 13.4284ZM18.036 3.03501L10.4651 11.3236L9.30048 10.2599L16.8714 1.97121C17.0195 1.80909 17.2221 1.71978 17.442 1.71978C17.6349 1.71978 17.8197 1.79155 17.9627 1.92214L17.9867 1.9441C18.3011 2.23124 18.3232 2.72063 18.036 3.03501Z" fill="#253D4E"/>
<path d="M17.4186 7.93316C16.9437 7.93316 16.5587 8.31816 16.5587 8.79305V16.0933C16.5587 17.2991 15.5776 18.2802 14.3719 18.2802H3.95005C2.7442 18.2802 1.76324 17.2991 1.76324 16.0933V5.7562C1.76324 4.55041 2.74426 3.56939 3.95005 3.56939H11.4934C11.9683 3.56939 12.3533 3.18439 12.3533 2.7095C12.3533 2.23461 11.9683 1.84961 11.4934 1.84961H3.95005C1.79591 1.84961 0.043457 3.60212 0.043457 5.7562V16.0933C0.043457 18.2474 1.79597 19.9999 3.95005 19.9999H14.3718C16.5259 19.9999 18.2784 18.2474 18.2784 16.0933V8.79305C18.2784 8.31816 17.8934 7.93316 17.4186 7.93316Z" fill="#253D4E"/>
</svg>
