<svg width="20" height="20" viewBox="0 0 20 20" fill="none" xmlns="http://www.w3.org/2000/svg">
<g clip-path="url(#clip0_317_13862)">
<path d="M4.5835 14.1665C5.27385 14.1665 5.8335 13.6069 5.8335 12.9165C5.8335 12.2261 5.27385 11.6665 4.5835 11.6665C3.89314 11.6665 3.3335 12.2261 3.3335 12.9165C3.3335 13.6069 3.89314 14.1665 4.5835 14.1665Z" fill="#1C4037"/>
<path d="M17.5 2.5H2.5C1.83696 2.5 1.20107 2.76339 0.732233 3.23223C0.263392 3.70107 0 4.33696 0 5L0 17.5H20V5C20 4.33696 19.7366 3.70107 19.2678 3.23223C18.7989 2.76339 18.163 2.5 17.5 2.5ZM2.5 4.16667H17.5C17.721 4.16667 17.933 4.25446 18.0893 4.41074C18.2455 4.56702 18.3333 4.77899 18.3333 5V6.66667H1.66667V5C1.66667 4.77899 1.75446 4.56702 1.91074 4.41074C2.06702 4.25446 2.27899 4.16667 2.5 4.16667ZM1.66667 15.8333V8.33333H18.3333V15.8333H1.66667Z" fill="#253D4E"/>
</g>
<defs>
<clipPath id="clip0_317_13862">
<rect width="20" height="20" fill="white"/>
</clipPath>
</defs>
</svg>
