<svg width="24" height="24" viewBox="0 0 24 24" fill="none" xmlns="http://www.w3.org/2000/svg">
<path d="M21 21.707H3C2.20435 21.707 1.44129 21.3909 0.87868 20.8283C0.31607 20.2657 0 19.5026 0 18.707L0 2.29297L6 8.29297L12 2.29297L18 8.29297L24 2.29297V18.707C24 19.5026 23.6839 20.2657 23.1213 20.8283C22.5587 21.3909 21.7956 21.707 21 21.707ZM2 7.12097V18.707C2 18.9722 2.10536 19.2265 2.29289 19.4141C2.48043 19.6016 2.73478 19.707 3 19.707H21C21.2652 19.707 21.5196 19.6016 21.7071 19.4141C21.8946 19.2265 22 18.9722 22 18.707V7.12097L18 11.121L12 5.12097L6 11.121L2 7.12097Z" fill="#253D4E"/>
</svg>
