<svg width="24" height="24" viewBox="0 0 24 24" fill="none" xmlns="http://www.w3.org/2000/svg">
<g clip-path="url(#clip0_317_13810)">
<path d="M12.0002 24.0082L11.3002 23.4082C10.3352 22.6002 1.90918 15.3232 1.90918 10.0002C1.90918 7.32388 2.97234 4.75719 4.86477 2.86477C6.75719 0.972336 9.32388 -0.0908203 12.0002 -0.0908203C14.6765 -0.0908203 17.2432 0.972336 19.1356 2.86477C21.028 4.75719 22.0912 7.32388 22.0912 10.0002C22.0912 15.3232 13.6652 22.6002 12.7042 23.4122L12.0002 24.0082ZM12.0002 2.09118C9.90331 2.09356 7.89301 2.92759 6.4103 4.4103C4.92759 5.89301 4.09356 7.90331 4.09118 10.0002C4.09118 13.3442 9.27518 18.6862 12.0002 21.1312C14.7252 18.6852 19.9092 13.3402 19.9092 10.0002C19.9068 7.90331 19.0728 5.89301 17.5901 4.4103C16.1073 2.92759 14.097 2.09356 12.0002 2.09118Z" fill="#253D4E"/>
<path d="M12 14C11.2089 14 10.4355 13.7654 9.77772 13.3259C9.11993 12.8864 8.60723 12.2616 8.30448 11.5307C8.00173 10.7998 7.92252 9.99556 8.07686 9.21964C8.2312 8.44372 8.61216 7.73098 9.17157 7.17157C9.73098 6.61216 10.4437 6.2312 11.2196 6.07686C11.9956 5.92252 12.7998 6.00173 13.5307 6.30448C14.2616 6.60723 14.8864 7.11992 15.3259 7.77772C15.7654 8.43552 16 9.20888 16 10C16 11.0609 15.5786 12.0783 14.8284 12.8284C14.0783 13.5786 13.0609 14 12 14ZM12 8C11.6044 8 11.2178 8.1173 10.8889 8.33706C10.56 8.55683 10.3036 8.86918 10.1522 9.23464C10.0009 9.60009 9.96126 10.0022 10.0384 10.3902C10.1156 10.7781 10.3061 11.1345 10.5858 11.4142C10.8655 11.6939 11.2219 11.8844 11.6098 11.9616C11.9978 12.0387 12.3999 11.9991 12.7654 11.8478C13.1308 11.6964 13.4432 11.44 13.6629 11.1111C13.8827 10.7822 14 10.3956 14 10C14 9.46957 13.7893 8.96086 13.4142 8.58579C13.0391 8.21072 12.5304 8 12 8Z" fill="#253D4E"/>
</g>
<defs>
<clipPath id="clip0_317_13810">
<rect width="24" height="24" fill="white"/>
</clipPath>
</defs>
</svg>
