<svg width="20" height="20" viewBox="0 0 20 20" fill="none" xmlns="http://www.w3.org/2000/svg">
<g clip-path="url(#clip0_317_13871)">
<path d="M9.9565 20.0073L9.6615 19.8765C9.33317 19.7323 1.6665 16.2698 1.6665 9.99982V4.56316C1.6668 4.03997 1.83216 3.53021 2.13904 3.10647C2.44592 2.68273 2.87867 2.36662 3.37567 2.20316L9.99984 0.00732422L16.624 2.20316C17.121 2.36662 17.5538 2.68273 17.8606 3.10647C18.1675 3.53021 18.3329 4.03997 18.3332 4.56316V9.99982C18.3332 17.1473 10.5932 19.7957 10.2632 19.9057L9.9565 20.0073ZM9.99984 1.75482L3.90317 3.77649C3.73729 3.83067 3.59281 3.93595 3.49042 4.07726C3.38804 4.21857 3.33299 4.38865 3.33317 4.56316V9.99982C3.33317 14.5782 8.69984 17.5482 10.039 18.2173C11.3757 17.6798 16.6665 15.219 16.6665 9.99982V4.56316C16.6667 4.38865 16.6116 4.21857 16.5093 4.07726C16.4069 3.93595 16.2624 3.83067 16.0965 3.77649L9.99984 1.75482Z" fill="#1C4037"/>
<path d="M9.25897 12.1183H9.23147C9.02054 12.1151 8.81246 12.0691 8.61981 11.9831C8.42716 11.8972 8.25394 11.7731 8.11063 11.6183L6.18896 9.61829L7.3898 8.46662L9.2598 10.4166L13.5773 6.09912L14.7556 7.27745L10.3715 11.6616C10.2254 11.8075 10.0519 11.923 9.86096 12.0014C9.67 12.0798 9.46539 12.1195 9.25897 12.1183Z" fill="#1C4037"/>
</g>
<defs>
<clipPath id="clip0_317_13871">
<rect width="20" height="20" fill="white"/>
</clipPath>
</defs>
</svg>
