<svg width="24" height="24" viewBox="0 0 24 24" fill="none" xmlns="http://www.w3.org/2000/svg">
<g clip-path="url(#clip0_317_13832)">
<path d="M16.3999 4.07192C15.1999 3.05492 13.9639 1.99992 12.7129 0.752922L11.9999 0.0449219L11.2999 0.753922C9.0479 3.01192 7.9839 6.47892 7.5219 8.55892C7.16827 8.01083 6.90587 7.40902 6.7449 6.77692L6.3219 5.14392L5.0919 6.29992C2.9369 8.32292 1.4999 10.3299 1.4999 13.5439C1.47978 15.8622 2.23482 18.1207 3.64512 19.9607C5.05541 21.8008 7.04008 23.1169 9.2839 23.6999C9.95997 23.8643 10.65 23.9648 11.3449 23.9999C11.5622 24.0274 11.7809 24.0418 11.9999 24.0429C12.1149 24.0429 12.2269 24.0329 12.3389 24.0259C15.063 23.944 17.648 22.8036 19.5451 20.847C21.4423 18.8903 22.5022 16.2713 22.4999 13.5459C22.4999 9.25192 19.6729 6.85192 16.3999 4.07192ZM12.1999 22.0259C12.0999 22.0259 11.9999 22.0359 11.8939 22.0349C10.9938 22.0074 10.1397 21.6311 9.51196 20.9854C8.88423 20.3398 8.53208 19.4754 8.5299 18.5749C8.5299 17.3069 9.2099 16.6749 10.7489 15.3649C11.1369 15.0349 11.5589 14.6759 12.0029 14.2649C12.3919 14.6179 12.7699 14.9379 13.1189 15.2349C14.6649 16.5469 15.4719 17.2919 15.4719 18.5719C15.4702 19.4564 15.1304 20.3069 14.5221 20.949C13.9138 21.5911 13.083 21.9764 12.1999 22.0259ZM17.2199 20.2549L17.1999 20.2689C17.3794 19.7221 17.4712 19.1504 17.4719 18.5749C17.4719 16.3099 15.9859 15.0479 14.4139 13.7129C13.8569 13.2409 13.2819 12.7529 12.7079 12.1789L11.9999 11.4719L11.2929 12.1789C10.6449 12.8259 10.0109 13.3659 9.4519 13.8419C7.8839 15.1759 6.5289 16.3289 6.5289 18.5749C6.53104 19.1751 6.6324 19.7708 6.8289 20.3379C5.78796 19.5386 4.94587 18.5095 4.36839 17.331C3.79092 16.1524 3.49368 14.8563 3.4999 13.5439C3.48345 11.7891 4.16264 10.0992 5.3889 8.84392C5.60013 9.27244 5.85053 9.68052 6.1369 10.0629C6.34607 10.3452 6.63324 10.56 6.96304 10.681C7.29284 10.802 7.65084 10.8239 7.9929 10.7439C8.34089 10.6664 8.6592 10.4904 8.90978 10.2368C9.16036 9.98321 9.3326 9.66281 9.4059 9.31392C9.82462 7.01557 10.7302 4.8334 12.0619 2.91392C13.1169 3.91392 14.1619 4.79892 15.1049 5.59992C18.2369 8.25992 20.5049 10.1819 20.5049 13.5499C20.5074 14.8446 20.2123 16.1225 19.6426 17.285C19.0728 18.4476 18.2436 19.4637 17.2189 20.2549H17.2199Z" fill="#253D4E"/>
</g>
<defs>
<clipPath id="clip0_317_13832">
<rect width="24" height="24" fill="white"/>
</clipPath>
</defs>
</svg>
