<svg width="24" height="24" viewBox="0 0 24 24" fill="none" xmlns="http://www.w3.org/2000/svg">
<g clip-path="url(#clip0_317_13817)">
<path d="M19.765 9.45804L4.97998 0.019043V24.019L19.759 14.546C20.1892 14.2757 20.5438 13.9007 20.7899 13.4561C21.0359 13.0115 21.1652 12.5118 21.1658 12.0037C21.1664 11.4956 21.0383 10.9956 20.7933 10.5504C20.5483 10.1053 20.1945 9.72945 19.765 9.45804ZM18.685 12.853L6.98498 20.353V3.67704L18.692 11.151C18.8363 11.2413 18.9552 11.367 19.0374 11.516C19.1196 11.6651 19.1624 11.8327 19.1617 12.003C19.161 12.1732 19.1168 12.3405 19.0334 12.4889C18.95 12.6373 18.8301 12.762 18.685 12.851V12.853Z" fill="#253D4E"/>
</g>
<defs>
<clipPath id="clip0_317_13817">
<rect width="24" height="24" fill="white"/>
</clipPath>
</defs>
</svg>
