<svg width="20" height="21" viewBox="0 0 20 21" fill="none" xmlns="http://www.w3.org/2000/svg">
<path d="M10 1.85618C11.1054 1.85981 12.1992 2.08263 13.2179 2.51175C14.2366 2.94087 15.1601 3.56777 15.935 4.35616H12.5V6.02282H16.7858C17.1961 6.02238 17.5895 5.8592 17.8796 5.56908C18.1697 5.27897 18.3329 4.88561 18.3333 4.47533V0.189526H16.6667V2.75451C15.2312 1.4619 13.4517 0.613403 11.5437 0.311866C9.63568 0.0103292 7.68119 0.268698 5.9171 1.05566C4.153 1.84261 2.65505 3.12437 1.6048 4.74557C0.554548 6.36677 -0.00290347 8.2578 1.13727e-05 10.1895H1.66668C1.6691 7.98008 2.54785 5.86189 4.11013 4.29962C5.67241 2.73735 7.79061 1.85861 10 1.85618Z" fill="#253D4E"/>
<path d="M18.3336 10.1895C18.336 11.8439 17.8452 13.4615 16.9239 14.8357C16.0026 16.2098 14.6925 17.2782 13.1611 17.9043C11.6297 18.5303 9.94644 18.6857 8.32629 18.3506C6.70614 18.0155 5.22266 17.205 4.06532 16.0227H7.50032V14.3561H3.21449C2.8042 14.3565 2.41085 14.5197 2.12073 14.8098C1.83061 15.0999 1.66743 15.4933 1.66699 15.9036V20.1894H3.33366V17.6244C4.76909 18.917 6.54866 19.7655 8.45664 20.067C10.3646 20.3686 12.3191 20.1102 14.0832 19.3232C15.8473 18.5363 17.3453 17.2545 18.3955 15.6333C19.4458 14.0121 20.0032 12.1211 20.0003 10.1895H18.3336Z" fill="#253D4E"/>
<rect x="0.5" y="0.5" width="19" height="20" stroke="#253D4E"/>
</svg>
