<svg width="24" height="24" viewBox="0 0 24 24" fill="none" xmlns="http://www.w3.org/2000/svg">
<g clip-path="url(#clip0_317_13826)">
<path d="M13.338 0.832811C12.9707 0.502247 12.4941 0.319336 12 0.319336C11.5059 0.319336 11.0293 0.502247 10.662 0.832811L0 10.4288V20.8288C0 21.6775 0.337142 22.4914 0.937258 23.0916C1.53737 23.6917 2.35131 24.0288 3.2 24.0288H20.8C21.6487 24.0288 22.4626 23.6917 23.0627 23.0916C23.6629 22.4914 24 21.6775 24 20.8288V10.4288L13.338 0.832811ZM15 22.0258H9V16.9998C9 16.2042 9.31607 15.4411 9.87868 14.8785C10.4413 14.3159 11.2044 13.9998 12 13.9998C12.7956 13.9998 13.5587 14.3159 14.1213 14.8785C14.6839 15.4411 15 16.2042 15 16.9998V22.0258ZM22 20.8258C22 21.1441 21.8736 21.4493 21.6485 21.6743C21.4235 21.8994 21.1183 22.0258 20.8 22.0258H17V16.9998C17 15.6737 16.4732 14.402 15.5355 13.4643C14.5979 12.5266 13.3261 11.9998 12 11.9998C10.6739 11.9998 9.40215 12.5266 8.46447 13.4643C7.52678 14.402 7 15.6737 7 16.9998V22.0258H3.2C2.88174 22.0258 2.57652 21.8994 2.35147 21.6743C2.12643 21.4493 2 21.1441 2 20.8258V11.3188L12 2.31881L22 11.3188V20.8258Z" fill="#253D4E"/>
</g>
<defs>
<clipPath id="clip0_317_13826">
<rect width="24" height="24" fill="white"/>
</clipPath>
</defs>
</svg>
