<svg width="20" height="20" viewBox="0 0 20 20" fill="none" xmlns="http://www.w3.org/2000/svg">
<g clip-path="url(#clip0_317_13855)">
<path d="M18.3336 1.66667V4.46833C17.3774 3.02817 16.0641 1.86051 14.5219 1.0793C12.9797 0.298084 11.2614 -0.0699949 9.53454 0.010977C7.8077 0.0919489 6.13134 0.619206 4.66905 1.5413C3.20675 2.46339 2.00848 3.74882 1.19115 5.27215C0.37383 6.79548 -0.0346263 8.50467 0.00564376 10.2329C0.0459138 11.9612 0.533535 13.6495 1.42092 15.1331C2.30831 16.6168 3.56516 17.845 5.06881 18.698C6.57246 19.5509 8.27156 19.9995 10.0003 20V18.3333C8.53767 18.3326 7.10097 17.947 5.83459 17.2152C4.56822 16.4833 3.51677 15.431 2.7859 14.1641C2.05503 12.8972 1.67049 11.4602 1.67093 9.99753C1.67136 8.53489 2.05675 7.09813 2.78837 5.83162C3.51999 4.56512 4.57206 3.51348 5.83888 2.78238C7.10569 2.05129 8.54261 1.6665 10.0052 1.66667C11.4679 1.66684 12.9047 2.05198 14.1714 2.78337C15.438 3.51476 16.4898 4.56665 17.2211 5.83333H14.167V7.5H18.3336C18.7757 7.5 19.1996 7.32441 19.5121 7.01185C19.8247 6.69929 20.0003 6.27536 20.0003 5.83333V1.66667H18.3336Z" fill="#253D4E"/>
<path d="M10.8335 10.8333H5.8335V9.16667H9.16683V5H10.8335V10.8333Z" fill="#253D4E"/>
<path d="M17.5 20C16.837 20 16.2011 19.7366 15.7322 19.2678C15.2634 18.7989 15 18.163 15 17.5V15C15 14.337 15.2634 13.7011 15.7322 13.2322C16.2011 12.7634 16.837 12.5 17.5 12.5C18.163 12.5 18.7989 12.7634 19.2678 13.2322C19.7366 13.7011 20 14.337 20 15V17.5C20 18.163 19.7366 18.7989 19.2678 19.2678C18.7989 19.7366 18.163 20 17.5 20ZM17.5 14.1667C17.279 14.1667 17.067 14.2545 16.9107 14.4107C16.7545 14.567 16.6667 14.779 16.6667 15V17.5C16.6667 17.721 16.7545 17.933 16.9107 18.0893C17.067 18.2455 17.279 18.3333 17.5 18.3333C17.721 18.3333 17.933 18.2455 18.0893 18.0893C18.2455 17.933 18.3333 17.721 18.3333 17.5V15C18.3333 14.779 18.2455 14.567 18.0893 14.4107C17.933 14.2545 17.721 14.1667 17.5 14.1667Z" fill="#253D4E"/>
<path d="M14.1666 19.9998H12.5V15.3448L11.4225 16.4223L10.2441 15.244L12.7441 12.744C12.8607 12.6275 13.0091 12.5481 13.1708 12.516C13.3324 12.4839 13.4999 12.5004 13.6522 12.5634C13.8044 12.6265 13.9346 12.7333 14.0261 12.8703C14.1177 13.0073 14.1666 13.1684 14.1666 13.3332V19.9998Z" fill="#253D4E"/>
</g>
<defs>
<clipPath id="clip0_317_13855">
<rect width="20" height="20" fill="white"/>
</clipPath>
</defs>
</svg>
